PathFileType	4	(X/Y/Z)	../Python\walking\Walking17\task.trc
DataRate	CameraRate	NumFrames	NumMarkers	Units	OrigDataRate	OrigDataStartFrame	OrigNumFrames
200.000000	200.000000	4	30	mm	200.000000	43	350
Frame#	Time	CLAV			STRN			RASI			LASI			PE01			RTH1			RTH2			RTH3			RTB3			RHEE			RD5M			RTOE			LTH2			LTH3			LTB2			LTB3			LHEE			LTOE			LD5M			RBAK			RTB2			C7			RTB1			LPSI			PE03			PE02			RPSI			T10			LTH1			LTB1			
		X1	Y1	Z1	X2	Y2	Z2	X3	Y3	Z3	X4	Y4	Z4	X5	Y5	Z5	X6	Y6	Z6	X7	Y7	Z7	X8	Y8	Z8	X9	Y9	Z9	X10	Y10	Z10	X11	Y11	Z11	X12	Y12	Z12	X13	Y13	Z13	X14	Y14	Z14	X15	Y15	Z15	X16	Y16	Z16	X17	Y17	Z17	X18	Y18	Z18	X19	Y19	Z19	X20	Y20	Z20	X21	Y21	Z21	X22	Y22	Z22	X23	Y23	Z23	X24	Y24	Z24	X25	Y25	Z25	X26	Y26	Z26	X27	Y27	Z27	X28	Y28	Z28	X29	Y29	Z29	X30	Y30	Z30	

44	0.215	-1115.587646484375	1215.939453125	176.2904052734376	-1052.25439453125	1033.694091796875	172.2500152587891	-1074.339599609375	841.4484252929692	286.5582580566407	-1094.677612304688	824.395385742188	59.1661071777344	-1275.299438476563	914.2199096679692	205.1148376464845	-1031.874755859375	568.0288085937502	326.1797180175782	-983.6884155273442	508.736267089844	302.9455566406251	-982.8189086914067	569.8320922851565	312.8297424316407	-914.3095092773442	218.8795623779298	271.1047363281251	-979.265502929688	25.0791645050049	210.9060668945314	-826.5975952148442	14.35762596130372	267.0385742187501	-794.8264770507817	33.09763336181642	212.7581176757814	-1281.51611328125	536.5628051757815	56.6280326843262	-1203.078002929688	546.5464477539065	42.20712661743165	-1481.062377929688	261.4951782226564	87.98049926757815	-1431.453002929688	258.8702087402345	84.227897644043	-1607.291870117188	140.9914550781251	152.6280059814454	-1474.1455078125	23.48706054687501	154.9679412841797	-1516.547485351563	18.47619247436524	110.2933883666993	-1293.295654296875	1209.957763671875	266.9555969238282	-947.2463378906255	249.7015380859376	292.1819152832032	-1238.333618164063	1312.368286132813	174.7515411376954	-913.8278198242192	297.2522277832032	278.3052978515626	-1285.69775390625	878.2197875976567	164.0093536376954	-1295.91650390625	853.697387695313	184.8426818847657	-1288.955322265625	856.3311157226567	235.0212707519532	-1275.835083007813	877.7529296875005	250.9558868408204	-1265.540405273438	1012.080017089844	182.7091522216797	-1241.099975585938	580.4177246093752	38.19050979614259	-1429.1435546875	320.5178833007814	72.50063323974612	
45	0.22	-1107.900512695313	1217.0224609375	176.1650390625001	-1044.300903320313	1034.818237304688	172.2156829833985	-1066.43603515625	842.8418579101567	287.0227966308595	-1086.736938476563	824.7282104492192	59.94215774536136	-1267.767700195313	915.326293945313	204.8025207519532	-1024.534423828125	569.1546020507815	326.7283935546876	-976.4852905273442	509.8333435058596	303.1764526367189	-975.5336914062505	570.8978271484377	312.9416503906251	-911.0337524414067	218.5915985107423	270.9420471191407	-978.9215698242192	25.54674148559572	211.0596466064454	-826.1892700195317	13.83288002014161	267.4942932128907	-793.9408569335942	31.93843841552736	212.7801971435548	-1271.268188476563	535.6604003906252	56.73297882080081	-1193.028930664063	546.427185058594	41.867244720459	-1472.224243164063	263.9988403320314	87.9637145996094	-1422.720336914063	260.4869384765626	83.66851043701175	-1599.468505859376	147.0177001953126	152.9114685058594	-1473.453247070313	23.77515602111817	155.0022583007813	-1514.838989257813	20.45193481445313	110.6558837890626	-1285.303344726563	1210.833862304688	267.3121643066407	-943.3984375000005	249.8473663330079	292.3940429687501	-1230.731323242188	1313.260620117188	174.8263092041016	-909.4738769531255	296.9876708984376	278.1294555664064	-1277.779663085938	879.0322875976567	163.8822631835938	-1287.959838867188	854.529174804688	184.8405303955079	-1281.149658203125	857.5147094726567	235.0169067382814	-1267.9619140625	879.2231445312505	251.0994720458986	-1257.60986328125	1012.981201171875	182.8218841552735	-1231.328369140625	579.9426879882815	38.32686233520509	-1419.443359375	322.1867980957032	72.30677795410159	
46	0.225	-1100.227172851563	1218.17626953125	176.0035247802735	-1036.386108398438	1036.001098632813	172.1518707275391	-1058.600952148438	844.2805175781255	287.501678466797	-1078.849853515625	825.1542968750005	60.73992919921878	-1260.290405273438	916.4954223632817	204.5070648193361	-1017.537719726563	570.1846923828127	327.2481994628907	-969.6814575195317	510.7630310058596	303.4111938476564	-968.5753784179692	571.8027954101565	313.0807189941407	-908.0529785156255	218.2696990966798	270.830780029297	-978.6326293945317	25.92337036132814	211.1571655273439	-825.8622436523442	13.52077198028565	267.9066772460939	-793.1818237304692	31.0490074157715	212.8206329345704	-1260.678588867188	534.6483154296877	56.76270294189456	-1182.659057617188	546.2974853515627	41.52384567260744	-1462.841674804688	266.4401855468751	87.90628051757815	-1413.469848632813	262.0628967285157	83.09925079345706	-1591.064575195313	153.0736083984376	153.1958770751954	-1472.343139648438	24.2506732940674	155.0099487304688	-1512.550903320313	22.75585174560548	110.9690399169922	-1277.2919921875	1211.806762695313	267.6884155273439	-939.9372558593755	249.9199066162111	292.5623474121095	-1223.131103515625	1314.232543945313	174.8892517089844	-905.4643554687505	296.6776733398439	278.0334777832032	-1269.91748046875	879.9130859375005	163.7705230712891	-1280.064208984375	855.4336547851567	184.8364715576172	-1273.4130859375	858.7558593750005	235.0110168457032	-1260.147216796875	880.7603149414067	251.2523498535157	-1249.713134765625	1013.970703125	182.9645996093751	-1221.301513671875	579.4176025390627	38.42620849609376	-1409.2197265625	323.7680664062501	72.05902099609378	
47	0.23	-1092.57080078125	1219.39453125	175.8052062988282	-1028.515380859375	1037.236083984375	172.0567321777344	-1050.839111328125	845.7541503906255	287.9916992187501	-1071.026000976563	825.6704711914067	61.55150222778323	-1252.869750976563	917.723266601563	204.2341613769532	-1010.897399902344	571.1143798828127	327.7326660156251	-963.3131713867192	511.5060729980471	303.6535949707032	-961.9572143554692	572.530212402344	313.2452087402345	-905.3588867187505	217.9180145263673	270.7687072753907	-978.397583007813	26.21369552612306	211.2032775878907	-825.607299804688	13.38081359863282	268.2593688964845	-792.5429077148442	30.3928852081299	212.8633422851564	-1249.767944335938	533.5366210937502	56.71071243286136	-1171.985229492188	546.1584472656252	41.19012832641603	-1452.917846679688	268.8103332519532	87.80229187011722	-1403.7021484375	263.5935974121095	82.52970886230472	-1582.104125976563	159.1182250976563	153.4787902832032	-1470.6904296875	24.94699859619142	154.9575653076172	-1509.596923828125	25.3895664215088	111.2100448608399	-1269.264770507813	1212.872314453125	268.0834960937501	-936.8515625000005	249.9275054931642	292.6836242675782	-1215.535522460938	1315.279663085938	174.9399108886719	-901.792358398438	296.3258666992189	278.0128784179689	-1262.117309570313	880.8596191406255	163.6794738769532	-1272.236694335938	856.408569335938	184.8353118896485	-1265.74951171875	860.050170898438	235.0083160400392	-1252.395385742188	882.3571777343755	251.4165496826173	-1241.8544921875	1015.044189453125	183.1383666992188	-1211.033813476563	578.8479003906252	38.48606872558595	-1398.475708007813	325.2510681152345	71.75276947021487	
